<?xml version="1.0" encoding="UTF-8" standalone="no"?>
<svg
   viewBox="-160 -228 766 630.99997"
   overflow="visible"
   version="1.1"
   id="svg2"
   sodipodi:docname="logo_dark.svg"
   width="766"
   height="631"
   inkscape:version="1.3.2 (091e20e, 2023-11-25, custom)"
   xmlns:inkscape="http://www.inkscape.org/namespaces/inkscape"
   xmlns:sodipodi="http://sodipodi.sourceforge.net/DTD/sodipodi-0.dtd"
   xmlns="http://www.w3.org/2000/svg"
   xmlns:svg="http://www.w3.org/2000/svg">
  <defs
     id="defs2" />
  <sodipodi:namedview
     id="namedview2"
     pagecolor="#ffffff"
     bordercolor="#000000"
     borderopacity="0.25"
     inkscape:showpageshadow="2"
     inkscape:pageopacity="0.0"
     inkscape:pagecheckerboard="0"
     inkscape:deskcolor="#d1d1d1"
     inkscape:zoom="2.3903394"
     inkscape:cx="315.64555"
     inkscape:cy="316.0639"
     inkscape:window-width="3840"
     inkscape:window-height="2066"
     inkscape:window-x="2869"
     inkscape:window-y="18"
     inkscape:window-maximized="1"
     inkscape:current-layer="svg2" />
  <path
     fill="#596f87"
     d="m 221.70316,291.64547 79.07212,78.92782 123.88761,-123.11322 -79.07212,-78.92781 34.96801,-35.03195 79.07212,78.92781 L 582.5176,88.315839 459.40531,-34.571775 380.4775,44.500339 345.44554,9.5323289 424.37336,-69.539793 300.26016,-193.42649 221.33234,-114.35437 142.26023,-193.28219 18.37352,-69.168977 97.44565,9.7588359 63.47763,44.789869 -15.59449,-34.137938 -139.4821,88.975259 -15.3689,212.86196 63.55891,133.78984 97.59087,168.75877 18.66306,247.83088 142.77534,370.71759 Z m 113.95976,-44.10411 -34.96893,34.03195 -34.03103,-33.96892 33.96801,-35.03105 z m -114.04105,-44.89586 -34.03196,-34.96893 33.96894,-34.03104 35.03104,33.96802 z M 459.4866,54.428189 493.51764,88.397129 459.54962,123.42816 424.51766,88.460139 Z M 335.5177,88.541429 300.54968,123.57339 266.51773,88.604449 300.48666,54.573409 Z M 221.47757,44.645569 187.44561,9.6766359 221.41363,-25.354403 256.44559,9.6136149 Z m 78.86387,-149.072089 35.03196,34.968014 -34.96802,35.031952 -34.03196,-34.968932 z m -192.96796,35.176256 34.96803,-35.031956 35.03195,34.968022 -34.96802,35.031952 z M -16.45019,123.86291 -50.48214,88.893969 -16.5132,54.862949 18.51783,88.830959 -15.45018,123.862 Z m 123.96799,-35.113241 34.96893,-34.03196 35.03104,33.96802 -34.96802,35.031961 z m 0.14522,158.999931 34.96802,-35.03195 35.03196,34.96802 -34.96894,34.03196 z"
     id="path1"
     style="fill:#ffffff;fill-opacity:1" />
  <path
     d="m 379.55878,133.50122 -33.96893,34.03104 79.07212,78.92781 L 300.77528,370.57329 221.70316,291.64547 142.77534,370.71759 19.66214,246.82998 98.59087,168.75786 63.55891,133.78984 -15.3689,212.86196 -139.4821,88.975259 -15.59449,-34.137938 63.47763,44.789869 98.44564,9.7579229 19.37352,-69.169891 142.26023,-193.28219 l 79.07211,78.92782 78.92782,-79.07212 124.1132,123.886697 L 345.44554,9.5323289 380.4775,44.500339 459.40531,-34.571775 582.5176,88.315839 459.6309,212.42812 380.55878,133.50031 Z M 458.4318,-5.5708731 315.56338,138.55967 l 15.01369,14.9863 128.88213,-129.117769 64.05842,63.941518 -63.9406,65.058431 -50.04565,-49.95431 -14.98629,15.01369 65.05842,63.94061 93.91411,-94.085821 -94.08581,-93.9141051 z m 35.08584,93.9680021 -35.03104,-33.96803 -33.96894,34.03104 35.03196,34.968021 z m -241.9862,15.221021 -14.98629,15.01369 129.11776,128.88213 -64.94152,64.05933 -49.04564,-49.95522 -14.98629,15.01369 64.05842,63.94152 93.9141,-94.08581 z m 48.75612,-267.04465 -142.86842,144.130548 15.01277,13.9862949 127.88305,-128.1168529 65.05842,63.940604 -49.95431,50.045646 15.01278,13.9862949 63.94152,-64.0584279 z M 365.4912,59.514039 251.38713,-54.381792 236.40084,-39.368097 350.50399,73.527739 Z m -64.86023,153.059301 -33.96801,35.03105 34.03103,33.96892 34.96893,-34.03195 z m -0.28953,-316.99986 -33.96802,35.031034 34.03196,34.968932 34.96802,-35.031952 z m 0.14522,158.999929 -33.96893,34.03104 34.03195,34.968941 34.96802,-35.031961 z M 271.45927,24.599909 157.56345,138.70399 172.57622,152.69027 285.47388,40.587119 271.46019,25.599909 Z m 0.1443,157.999931 -128.88211,129.11777 -64.05843,-63.94152 48.95431,-50.04473 -15.0137,-14.98629 -63.9415,64.05843 94.08672,94.91409 142.86842,-144.13054 z M 221.41454,-24.354404 187.44561,9.6766359 221.47757,44.645569 256.44559,9.6136149 221.41363,-25.354403 Z m 35.17627,192.967954 -35.03196,-34.96802 -33.96802,35.03105 34.03104,33.96892 z M 142.28762,-163.28219 48.37352,-69.196377 191.50406,73.672949 206.49127,59.659259 78.37351,-69.223778 l 63.94151,-64.058422 49.04473,48.955221 14.98629,-15.013693 z M 92.5315,103.76336 78.54521,118.77614 191.64928,232.67289 206.63558,217.6592 93.5315,103.76245 Z m 49.81001,-208.04558 -34.96803,35.031956 35.03196,34.968018 34.96802,-35.031952 z m 0.14522,158.999929 -34.96893,34.03196 35.03195,34.968021 34.96802,-35.031961 z M 107.66302,247.7496 142.69406,281.71763 177.663,247.68567 142.63104,212.71765 Z M 112.45934,24.74513 -15.42279,153.86198 -80.48212,88.921379 -15.54061,24.862038 33.50504,74.817259 48.49133,59.803559 -15.56801,-5.1379511 -109.48211,88.947869 -15.39631,182.86197 127.47303,39.731429 Z M -50.48214,88.893969 -15.45018,123.862 18.51783,88.830959 -15.5132,54.862029 Z"
     id="path2" />
</svg>
